<svg id="icon"
    xmlns="http://www.w3.org/2000/svg" viewBox="0 0 32 32">
    <defs>
        <style>.cls-1{fill:none;}</style>
    </defs>
    <polygon points="11 2 2 2 2 11 4 11 4 4 11 4 11 2"/>
    <polygon points="2 21 2 30 11 30 11 28 4 28 4 21 2 21"/>
    <polygon points="30 11 30 2 21 2 21 4 28 4 28 11 30 11"/>
    <polygon points="21 30 30 30 30 21 28 21 28 28 21 28 21 30"/>
    <text xml:space="preserve" font-family="'Open Sans', sans-serif" font-size="14" font-style="normal" font-weight="normal" style="stroke: none; stroke-width: 1; stroke-dasharray: none; stroke-linecap: butt; stroke-dashoffset: 0; stroke-linejoin: miter; stroke-miterlimit: 4; fill: rgb(0,0,0); fill-rule: nonzero; opacity: 1; white-space: pre;" >
    <tspan x="7" y="21" >AR</tspan></text>
    <rect id="_Transparent_Rectangle_" data-name="&lt;Transparent Rectangle&gt;" class="cls-1" width="32" height="32"/>
</svg>
