<?xml version="1.0" encoding="UTF-8"?>
<svg width="1200pt" height="1200pt" version="1.1" viewBox="0 0 1200 1200" xmlns="http://www.w3.org/2000/svg">
 <path d="m386.93 1125.8c-4.1055-21.266 9.7422-41.809 31.008-45.91 21.121-4.3906 41.855 9.9375 46.031 31.055 4.0781 21.266-9.8633 41.855-31.129 45.91-21.312 4.4414-41.902-10.176-45.91-31.055m-55.586-1014c-10.559-25.559 1.6094-54.984 27.145-65.543 25.727-10.609 54.938 1.6562 65.543 27.168l171.14 413.26c4.4883 10.801 16.922 15.91 27.672 11.426 10.801-4.4414 15.984-16.848 11.496-27.625l-62.281-150.43c-10.609-25.414 1.8008-54.961 27.145-65.496 25.441-10.609 54.91 1.5859 65.496 27.168l68.543 165.43c4.4414 10.871 16.871 15.984 27.625 11.496 10.848-4.4883 15.961-16.871 11.496-27.672l-43.465-105c-9.8164-23.785 1.5352-51.121 25.32-60.961 23.734-9.793 51.168 1.6094 61.055 25.273l48.457 117.07c4.4414 10.801 16.895 15.961 27.648 11.473 10.848-4.4883 15.961-16.871 11.473-27.695l-23.328-56.426c-9.8398-23.785 1.4883-51.168 25.273-61.031 23.785-9.793 51.238 1.4648 61.078 25.223 33.215 80.902 65.617 162.67 100.08 242.98 18.77 43.945 36.504 85.465 41.688 133.95 3.6484 34.68 4.2227 72.215 4.8008 108.48 0.71875 47.93 1.4141 93.574 8.6406 133.61l-354.31 146.75c-58.297-54.77-94.031-79.535-123-99.695-33.238-23.16-57.238-39.84-100.7-90.145-19.922-23.062-40.488-53.016-60.336-81.938-24.266-35.398-47.207-68.832-69.887-91.848-23.062-23.305-43.945-61.871-37.297-78.504 5.543-13.703 33.719-10.777 45.527-8.7852 30.121 4.9453 52.703 18.504 74.09 39.887 30.07 29.352 26.566 28.441 41.281 64.008 4.4648 10.871 16.969 16.008 27.695 11.473 10.801-4.4883 15.91-16.871 11.473-27.695zm10.969-104.69c-47.137 19.586-69.602 73.801-50.062 120.91l192.38 464.43c-17.594-10.008-36.695-17.23-56.664-20.52-63.383-10.32-84.695 17.352-91.754 34.824-17.305 43.465 22.824 100.2 46.512 124.11 20.016 20.328 41.93 52.246 65.113 85.992 20.496 29.93 41.664 60.84 63.168 85.703 46.945 54.359 74.137 73.223 108.57 97.199 30.91 21.504 65.977 45.887 128.02 105.05 4.0078 3.8398 9.2656 5.9023 14.617 5.9023 2.6875 0 5.4961-0.52734 8.0898-1.6094l383.3-158.79c9.6484-4.0078 14.953-14.52 12.457-24.648-9.6719-39.406-10.414-89.281-11.258-142.11-0.57422-37.176-1.1523-75.625-5.0156-112.27-5.832-54.793-24.793-99.168-44.855-146.09l-99.887-242.52c-18.742-45.336-70.895-66.938-116.43-48.215-16.199 6.7422-29.23 17.855-38.641 31.246-21.648-40.078-69.77-57.504-111.94-39.938-16.273 6.7422-29.281 17.855-38.688 31.297-22.297-41.137-72.312-60.047-116.38-41.664-16.703 6.9102-30.574 18.383-40.609 33l-79.199-191.18c-19.535-47.172-73.75-69.707-120.86-50.102zm-214.3 253.99-80.543 28.414c-11.039 3.8867-16.824 16.008-12.91 27.047 3.8398 10.992 15.91 16.824 27.047 12.91l33.238-11.762c-34.223 78.336-53.113 163.15-53.113 249 0 220.61 118.85 423.1 304.11 533.98-2.375 10.801-2.6875 22.055-0.48047 33.191 8.543 44.352 51.574 73.176 95.594 64.633 44.258-8.6875 73.176-51.336 64.586-95.664-8.4492-43.414-50.977-73.031-95.641-64.586-17.305 3.3594-32.543 12.191-44.281 24.984-171.58-103.5-281.5-291.66-281.5-496.5 0-79.152 17.16-157.32 48.336-229.59l11.16 31.512c3.8633 11.062 16.078 16.777 27 12.91 11.039-3.8867 16.848-16.008 12.91-27.047l-28.512-80.543c-3.9102-11.012-16.008-16.844-27-12.887z" fill-rule="evenodd"/>
</svg>
