<svg xmlns="http://www.w3.org/2000/svg" viewBox="0 0 617.54 207.69"><defs>
    <style>.cls-1{fill: white;}
    </style></defs>
    <title>Kaplan Inc logo</title><g id="Layer_2" data-name="Layer 2"><g id="Layer_1-2" data-name="Layer 1">
    <path class="cls-1" d="M568.92,0H555.23c32.26,19.45,52.36,42,52.36,66.28C607.59,138.75,454.05,192,266.68,192,158.42,192,62.08,173.23,0,144.05v15.26c64.29,29.58,160,48.38,266.68,48.38,202.38,0,350.86-61.87,350.86-137.87,0-25.39-17.68-49.27-48.62-69.82"/>
    <path class="cls-1" d="M484.52,119.54v-51c6.2,9.26,34,51,34,51h17.89V40H516.56V90.8C510.15,81.3,483,40,483,40H464.64v79.54ZM382.24,99.22h27.38l8.18,20.32h22.76L405.65,40H393.29l-35.35,79.54h15.67ZM396.38,66.5l8.39,21.21H387.09Zm-56.8,39.57H311.76V40H292.32v79.54h47.26ZM22.31,40H0v79.55H22.31Zm98.33,59.23h27.41l8.16,20.32H179L144.05,40H131.68L96.33,119.54H112ZM134.78,66.5l8.39,21.21H125.51Zm90.8,25h9.28a40.4,40.4,0,0,0,13.47-2c6.62-2,16.81-10.39,16.81-23.89,0-6.83-1.79-12.37-5.08-16.56-5.11-6.41-13.7-9.5-27-9.5H205.92v80h19.66Zm0-38.67h5.53c9.93,0,14.35,3.74,14.35,12.37,0,4.64-1.54,8.4-4.2,10.82-2,1.77-4.63,2.21-11.26,2.21h-4.42ZM81.1,119.54,55.46,80H48.6L71.35,40H54.57c-.21,0-23.19,40-23.19,40l25,39.56Z"/>
    </g></g></svg>
