<?xml version="1.0" encoding="UTF-8"?>
<svg width="1200pt" height="1200pt" version="1.1" viewBox="0 0 1200 1200" xmlns="http://www.w3.org/2000/svg">
 <path d="m440.23 168.21c23.305-9.625 50.258 1.5352 59.953 24.84l157.82 381.17c4.1523 10.246 17.281 15.793 27.648 11.473 10.824-4.4648 15.938-16.848 11.473-27.625l-55.609-134.33c-4.6328-11.23-4.5586-23.594 0.097657-34.969 4.7266-11.398 13.488-20.207 24.742-24.84 11.16-4.6797 23.594-4.6797 35.062 0.046875 11.398 4.7266 20.184 13.488 24.84 24.77l64.32 155.4c4.4883 10.777 16.754 15.938 27.625 11.473 10.848-4.4648 15.938-16.848 11.473-27.625l-40.754-98.566c-4.3203-10.391-4.3203-22.008 0.097657-32.594 4.3438-10.535 12.48-18.77 22.922-23.113 21.625-8.9531 46.754 1.3672 55.703 23.09l45.527 109.95c4.5352 10.895 17.016 15.793 27.648 11.473 10.922-4.5352 15.887-16.895 11.473-27.695l-22.008-53.113c-8.8086-21.648 1.4883-46.559 23.16-55.512 10.488-4.3438 22.031-4.3906 32.543 0.097656 10.586 4.3438 18.77 12.527 23.113 22.922l123.17 300.14 1.7773 5.1133c10.992 44.641 11.809 98.352 12.574 150.31 0.67188 44.641 1.3438 87.191 7.9453 124.66l-333.98 138.27c-72.504-43.777-114.91-61.633-149.04-75.84-38.762-16.176-66.742-27.816-121.7-69.238-25.344-19.055-52.68-44.93-79.105-69.91-32.281-30.457-62.641-59.258-90.574-77.496-28.703-18.742-58.391-52.969-55.223-72.07 2.7617-15.719 32.328-18.887 44.93-19.512 14.449-0.81641 30.098 1.1055 44.594 5.3281 12.215 3.625 23.734 8.8555 34.223 15.602 25.703 16.535 113.28 70.297 181.85 82.176 8.543 1.4141 15.625 1.6094 22.367-4.8945 5.9531-5.543 8.7617-15.672 5.3516-23.258l-242.77-586.16c-9.6719-23.352 1.4414-50.258 24.742-59.93m99.051 8.6641c-18.648-44.879-70.391-66.406-115.18-47.711-44.902 18.574-66.312 70.297-47.762 115.18l226.37 546.79c-55.945-19.32-117.14-57.406-131.21-66.457-13.871-8.9023-29.113-15.84-45.215-20.566-18.961-5.6406-39.145-7.9922-58.68-7.0781-65.902 3.3125-81.168 35.617-84.457 54.648-7.9922 47.375 44.785 95.711 73.801 114.7 24.719 16.129 53.785 43.633 84.648 72.742 27.266 25.848 55.535 52.488 82.68 72.938 59.258 44.664 90.91 57.816 130.85 74.52 36.047 15.023 76.895 32.062 152.57 78.48 3.4805 2.1133 7.2734 3.0703 11.09 3.0703 2.6406 0 5.4492-0.52734 8.0898-1.5859l360.02-149.06c9.6484-4.0078 14.977-14.426 12.48-24.551-9.0469-36.938-9.7695-83.688-10.535-133.18-0.76953-54.312-1.6328-110.45-13.777-159.74-1.0078-4.1758-2.0156-6.9844-3.6484-11.016l-123.24-300.24c-8.6172-20.879-24.938-37.223-46.031-45.887-20.953-8.7617-44.062-8.7617-64.895-0.097656-14.832 6.168-26.762 16.176-35.617 28.273-20.977-36.504-66.047-53.062-105.86-36.457-14.449 6.0234-26.496 15.887-35.594 28.273-9.625-16.945-24.215-30.336-42.625-37.945-21.91-9.0977-45.793-9.0469-67.414-0.097657-15.215 6.2656-27.863 16.68-37.297 29.762zm-149.59-130.77c-45.793 18.91-81.457 54.648-100.41 100.44-19.031 45.793-19.031 96.238 0 142.08 4.2227 10.32 9.3359 20.062 15.098 29.137 6.2383 9.8164 19.465 12.719 29.184 6.4336 9.8633-6.2656 12.77-19.367 6.457-29.23-4.4883-7.0312-8.4258-14.543-11.688-22.535-15.098-36.457-13.969-75.648 0-109.51 14.016-33.984 40.992-62.641 77.566-77.785 35.398-14.566 74.328-14.641 109.73 0.046876 35.328 14.688 62.879 42.238 77.496 77.566 3.3594 8.1367 5.9766 16.465 7.7539 24.742 2.4961 11.426 13.297 18.625 25.223 16.176 11.352-2.4727 18.602-13.727 16.176-25.129-2.375-10.754-5.7344-21.434-10.031-31.969-19.008-45.793-54.648-81.504-100.41-100.46-45.891-18.98-96.293-19.031-142.13 0.003907zm71.832 573.24c-41.258-24.168-89.352-30.887-135.41-18.793-46.176 12.023-84.887 41.305-109.01 82.465-24.168 41.16-30.77 89.207-18.719 135.38 12 46.176 41.258 84.863 82.441 109.01 9.2891 5.4492 18.863 9.9102 28.559 13.535 10.727 4.3203 23.16-1.6328 27.191-12.406 4.1055-10.871-1.4414-23.062-12.406-27.168-7.4141-2.7852-14.785-6.2148-21.91-10.441-31.391-18.434-53.785-47.977-62.977-83.16-9.168-35.23-4.0781-71.93 14.352-103.32 18.434-31.441 47.953-53.785 83.184-62.977 35.305-9.1445 71.93-4.0312 103.3 14.352 7.2734 4.2227 13.922 9.0469 20.09 14.281 8.9531 7.6562 22.297 6.625 29.855-2.2578 7.6094-8.8555 6.5508-22.246-2.3047-29.879-8.0938-6.8125-16.781-13.125-26.238-18.621zm-380.16-457.97c-9.3359 6.9844-11.254 20.211-4.3203 29.547 7.0547 9.3828 20.258 11.305 29.664 4.3438l18.047-13.488-73.148 504.19-13.535-18.121c-6.9844-9.3828-20.207-11.305-29.566-4.2969-9.3828 6.9844-11.305 20.281-4.2969 29.617l44.062 58.969c6.9844 9.3594 20.258 11.23 29.566 4.2969l58.969-43.992c9.3359-7.0078 11.281-20.23 4.2734-29.617-7.0312-9.3828-20.281-11.258-29.594-4.2969l-18.07 13.488 73.148-504.17 13.535 18.121c7.0117 9.3125 20.281 11.207 29.57 4.2695 9.4062-7.0312 11.328-20.281 4.2969-29.617l-44.066-58.965c-6.9336-9.3594-20.23-11.281-29.566-4.2969z" fill-rule="evenodd"/>
</svg>
